<?xml version="1.0" encoding="UTF-8"?>
<svg id="Layer_1" data-name="Layer 1" xmlns="http://www.w3.org/2000/svg" width="263" height="26" viewBox="0 0 263 26">
  <defs>
    <style>
      .cls-1 {
        fill: #f4f0ed;
      }

      .cls-2 {
        fill: #141414;
      }
    </style>
  </defs>
  <rect class="cls-1" width="263" height="26"/>
  <g id="Asset-Artboard-Page">
    <g id="icon_logo_horizontal_TPB_large" data-name="icon/logo/horizontal/TPB/large">
      <path id="Fill-1" class="cls-2" d="M252.39,18.87v-3.55h2.2c.25,.83,.44,1.6,.66,2.7,.85,.28,1.59,.41,2.34,.41,1.57,0,2.42-.66,2.42-1.82,0-1.05-.52-1.6-1.95-1.98l-1.57-.41c-2.8-.74-3.93-1.98-3.93-4.08,0-2.45,2.06-4.05,5.22-4.05,1.48,0,3.05,.39,4.59,1.1v3h-2.17c-.25-.63-.38-1.21-.58-2.12-.58-.19-1.15-.28-1.84-.28-1.38,0-2.31,.63-2.31,1.57,0,1.02,.55,1.49,1.95,1.85l1.59,.41c2.72,.71,3.99,2.09,3.99,4.24,0,2.59-2.09,4.3-5.28,4.3-1.79,0-3.44-.41-5.33-1.29h0Zm-12.01-.22c.6-.14,1.26-.28,1.92-.33V8.26l-1.92-.41v-1.18c.91-.3,2.28-.47,3.74-.47,.33,0,.52,.03,1.15,.08l.36,2.84c1.15-2.01,2.78-2.95,4.95-2.95v3.22c-.38-.03-.72-.03-1.04-.03-1.26,0-2.67,.3-3.9,1.05v7.85c.91,.05,1.7,.19,2.56,.38,0,.41-.08,.83-.25,1.27h-7.56v-1.27Zm-8.69-.19c2.17,0,3.35-1.95,3.35-5.2s-1.13-5.45-3.27-5.45-3.35,1.96-3.35,5.21,1.13,5.45,3.27,5.45h0Zm-.22,1.74c-4.04,0-6.68-2.53-6.68-6.86,0-4.85,3.08-7.24,7.2-7.24s6.68,2.62,6.68,6.86c0,4.85-3.05,7.24-7.2,7.24h0Zm-19.33-1.32v-3.55h2.2c.25,.83,.44,1.6,.66,2.7,.85,.28,1.59,.41,2.34,.41,1.57,0,2.42-.66,2.42-1.82,0-1.05-.52-1.6-1.95-1.98l-1.57-.41c-2.8-.74-3.93-1.98-3.93-4.08,0-2.45,2.06-4.05,5.22-4.05,1.48,0,3.05,.39,4.59,1.1v3h-2.17c-.25-.63-.38-1.21-.58-2.12-.58-.19-1.15-.28-1.84-.28-1.38,0-2.31,.63-2.31,1.57,0,1.02,.55,1.49,1.95,1.85l1.59,.41c2.72,.71,3.99,2.09,3.99,4.24,0,2.59-2.09,4.3-5.28,4.3-1.79,0-3.44-.41-5.33-1.29h0Zm-7.89-16.69c0-1.13,.85-2.01,2.09-2.01s2.17,.88,2.17,2.01-.91,2.01-2.17,2.01-2.09-.85-2.09-2.01h0Zm-1.29,16.47c.61-.17,1.27-.28,1.95-.36V8.26l-1.95-.41v-1.18c1.02-.3,2.45-.47,3.74-.47,.49,0,.88,.03,1.54,.08v12.01c.72,.08,1.43,.19,2.03,.36,0,.41-.11,.88-.22,1.27h-7.09v-1.27Zm-9.81,1.27l-5.28-12.01c-.58-.05-1.13-.17-1.62-.3v-1.24h7.15c0,.38-.08,.88-.19,1.24-.52,.14-1.07,.25-1.68,.33l3.44,8.02,3.33-7.96c-.72-.06-1.43-.19-2.09-.39v-1.24h5.94c0,.38-.08,.88-.17,1.24-.58,.17-1.1,.3-1.68,.39l-5.14,11.93c-.36,.11-.69,.14-.99,.14-.33,0-.69-.03-1.02-.14h0Zm-15.08-1.96c.99,0,1.81-.41,2.64-1.16V8.24c-.66-.28-1.4-.44-2.09-.44-2.45,0-3.88,1.68-3.88,5.32,0,3.14,1.24,4.85,3.33,4.85h0Zm-6.96-4.49c0-4.52,2.89-7.38,7.01-7.38,.83,0,1.7,.11,2.58,.3V2.04l-1.95-.36V.5c.99-.36,2.42-.5,3.74-.5,.5,0,.85,.03,1.51,.08V18.04l2.01,.3c-.03,.36-.05,.72-.14,1.08-.85,.38-1.95,.71-2.75,.71-1.65,0-2.28-.8-2.39-1.87-.8,.94-2.12,1.93-4.01,1.93-3.24,0-5.61-2.42-5.61-6.72h0Zm-8.06-.96l-2.7-7.35-2.67,7.35h5.36Zm-9.87,5.62l6.35-16.83c.49-.05,1.02-.11,1.51-.11,.52,0,1.04,.05,1.57,.11l6.35,16.88c.72,.08,1.35,.19,1.87,.3,0,.47,0,.88-.17,1.43h-7.89v-1.43c.74-.17,1.51-.3,2.31-.36l-1.29-3.58h-6.85l-1.29,3.55c.66,.08,1.48,.22,2.39,.41,0,.58-.05,1.05-.16,1.4h-6.57v-1.43c.58-.16,1.21-.28,1.87-.36h0Zm-15.75,.33c2.17,0,3.35-1.95,3.35-5.2s-1.13-5.45-3.27-5.45-3.35,1.96-3.35,5.21,1.13,5.45,3.27,5.45h0Zm-.22,1.74c-4.04,0-6.68-2.53-6.68-6.86,0-4.85,3.08-7.24,7.2-7.24s6.68,2.62,6.68,6.86c0,4.85-3.05,7.24-7.2,7.24h0Zm-12.51-9.58c0-1.76-.91-2.92-2.28-2.92s-2.31,1.16-2.31,2.92,.88,2.89,2.31,2.89,2.28-1.18,2.28-2.89h0Zm-2.2,13.74c2.2,0,3.63-.85,3.63-2.31,0-1.16-.66-1.93-2.45-2.12l-3.05-.33c-.05,0-.08,0-.14-.03-1.02,.63-1.43,1.46-1.43,2.42,0,1.57,1.32,2.37,3.44,2.37h0Zm-1.73-9.45c-.44,.28-.74,.61-.74,1.02,0,.52,.47,.85,1.43,.96l3.3,.39c3.08,.36,4.76,1.71,4.76,4.1,0,2.67-3.08,4.63-7.23,4.63s-6.27-1.27-6.27-3.53c0-1.51,1.15-2.64,3.19-3.28-.93-.41-1.57-1.16-1.57-2.15s.66-1.79,1.84-2.56c-1.68-.72-2.69-2.12-2.69-3.88,0-2.64,2.28-4.52,5.64-4.52,.63,0,1.21,.05,1.76,.19,.96-1.79,2.34-2.67,4.23-2.67,.28,0,.61,.03,.96,.08v2.34c-.47-.08-.77-.11-1.07-.11-1.18,0-2.06,.28-2.78,.83,1.57,.77,2.5,2.15,2.5,3.86,0,2.64-2.23,4.46-5.61,4.46-.58,0-1.15-.05-1.65-.17h0Zm-15.81,3.75c.6-.14,1.26-.28,1.92-.33V8.26l-1.92-.41v-1.18c.91-.3,2.28-.47,3.74-.47,.33,0,.52,.03,1.15,.08l.36,2.84c1.15-2.01,2.78-2.95,4.95-2.95v3.22c-.38-.03-.71-.03-1.04-.03-1.27,0-2.67,.3-3.9,1.05v7.85c.91,.05,1.7,.19,2.56,.38,0,.41-.08,.83-.25,1.27h-7.56v-1.27Zm-8.66-.66c.99,0,1.73-.25,2.42-.94v-3.61l-1.15,.11c-2.37,.25-3.35,.99-3.35,2.51,0,1.21,.8,1.93,2.09,1.93h0Zm-5.39-1.57c0-2.53,1.98-3.99,5.72-4.35l2.09-.19v-.83c0-1.87-.96-2.86-2.94-2.86-1.24,0-2.78,.39-3.77,.94l-.52-1.07c1.24-1.16,3.44-1.96,5.58-1.96,3.19,0,4.95,1.74,4.95,4.85v7.11l1.98,.3c0,.28-.03,.55-.11,1.07-.91,.44-1.98,.72-2.94,.72-1.1,0-1.84-.58-2.12-1.6-.82,1.05-2.23,1.6-3.99,1.6-2.45,0-3.93-1.4-3.93-3.72h0Zm-14.96,2.09c.63-.14,1.29-.28,1.98-.36V3.03c-.82-.08-1.46-.19-1.98-.33V1.29h14.85V6.97h-1.76c-.25-.74-.58-2.34-.72-3.64h-6.82v6.39h3.6c.08-.74,.22-1.46,.44-2.04h1.62v6.03h-1.62c-.22-.55-.36-1.29-.44-2.04h-3.6v6.45c.82,.08,1.65,.22,2.42,.39,0,.47-.11,.94-.27,1.4h-7.7v-1.4Zm-18.28,.36v-3.55h2.2c.25,.83,.44,1.6,.66,2.7,.85,.28,1.59,.41,2.34,.41,1.57,0,2.42-.66,2.42-1.82,0-1.05-.52-1.6-1.95-1.98l-1.57-.41c-2.8-.74-3.93-1.98-3.93-4.08,0-2.45,2.06-4.05,5.22-4.05,1.48,0,3.05,.39,4.59,1.1v3h-2.17c-.25-.63-.38-1.21-.58-2.12-.58-.19-1.15-.28-1.84-.28-1.38,0-2.31,.63-2.31,1.57,0,1.02,.55,1.49,1.95,1.85l1.59,.41c2.72,.71,3.99,2.09,3.99,4.24,0,2.59-2.09,4.3-5.28,4.3-1.79,0-3.44-.41-5.33-1.29h0Zm-6.98-.58V2.04l-1.93-.36V.5c.99-.36,2.45-.5,3.74-.5,.49,0,.88,.03,1.51,.08V18.29c.72,.08,1.43,.19,2.06,.36,0,.44-.11,.88-.22,1.27h-7.09v-1.27c.58-.17,1.24-.28,1.93-.36h0Zm-8.22,0V2.04l-1.93-.36V.5c.99-.36,2.45-.5,3.74-.5,.49,0,.88,.03,1.51,.08V18.29c.72,.08,1.43,.19,2.06,.36,0,.44-.11,.88-.22,1.27h-7.09v-1.27c.58-.17,1.24-.28,1.93-.36h0Zm-12.23-6.61h5.8c-.06-2.97-1.07-3.97-2.72-3.97-1.73,0-2.86,1.21-3.08,3.97h0Zm-3.46,1.43c0-4.19,2.78-7.02,6.6-7.02s5.72,2.29,5.72,6.14c0,.44,0,.83-.03,1.13h-8.83c.25,3.47,2.17,4.71,4.45,4.71,1.24,0,2.56-.3,3.68-.85l.52,1.1c-1.24,1.05-3.3,1.87-5.5,1.87-4.23,0-6.63-2.62-6.63-7.08h0ZM7.18,19.91L1.87,3.03c-.71-.08-1.35-.22-1.87-.33V1.29H7.95c0,.47-.08,1.02-.22,1.41-.41,.11-1.15,.22-1.98,.3l3.55,11.6L13.36,2.15c.44-.08,.91-.11,1.4-.11,.41,0,.82,.03,1.29,.11l3.93,12.5,3.66-11.54c-.99-.08-1.84-.25-2.47-.41V1.29h6.74c0,.44-.08,.99-.19,1.41-.47,.14-1.13,.3-1.87,.38l-5.25,16.83c-.49,.08-.93,.11-1.37,.11s-.85-.03-1.29-.11L13.83,7.16l-4.07,12.75c-.49,.08-.96,.11-1.4,.11-.41,0-.8-.03-1.18-.11h0Z"/>
    </g>
  </g>
</svg>