<?xml version="1.0" encoding="UTF-8"?>
<svg width="263px" height="26px" viewBox="0 0 263 26" version="1.1" xmlns="http://www.w3.org/2000/svg" xmlns:xlink="http://www.w3.org/1999/xlink">
    <!-- Generator: sketchtool 55.2 (78181) - https://sketchapp.com -->
    <title>8E64CCBF-A662-4048-B69A-ADAC15A8DB98</title>
    <desc>Created with sketchtool.</desc>
    <g id="Asset-Artboard-Page" stroke="none" stroke-width="1" fill="none" fill-rule="evenodd">
        <g id="icon/logo/horizontal/TPB/large" fill="#141414" fill-rule="nonzero">
            <path d="M252.388097,18.8671941 L252.388097,15.3144759 L254.587416,15.3144759 C254.835506,16.1399708 255.027192,16.9120513 255.246639,18.0130055 C256.09931,18.2884648 256.841377,18.4266359 257.583884,18.4266359 C259.151301,18.4266359 260.003532,17.7649156 260.003532,16.6078984 C260.003532,15.5616829 259.480913,15.0116473 258.052302,14.6258277 L256.484445,14.2121974 C253.680544,13.4688105 252.552902,12.2296852 252.552902,10.1354885 C252.552902,7.68504873 254.614737,6.08747326 257.776892,6.08747326 C259.261465,6.08747326 260.828883,6.47329281 262.367657,7.18842745 L262.367657,10.1915515 L260.196099,10.1915515 C259.949331,9.55720058 259.811846,8.97979558 259.618398,8.0699854 C259.041137,7.87751706 258.463436,7.79452613 257.776892,7.79452613 C256.401601,7.79452613 255.466967,8.42887704 255.466967,9.36473225 C255.466967,10.3835784 256.017348,10.8519474 257.419078,11.2103976 L259.013816,11.624028 C261.736196,12.3387212 263,13.7169004 263,15.8640701 C263,18.4535638 260.910845,20.161941 257.721369,20.161941 C255.934505,20.161941 254.285125,19.7483106 252.388097,18.8671941 L252.388097,18.8671941 Z M240.377107,18.6464736 C240.981688,18.5087439 241.640911,18.3705729 242.301456,18.3162756 L242.301456,8.26333662 L240.377107,7.85014771 L240.377107,6.66576115 C241.283979,6.36293253 242.658389,6.19783354 244.115641,6.19783354 C244.445253,6.19783354 244.638261,6.22520289 245.270604,6.27994159 L245.628417,9.11752521 C246.782057,7.10676084 248.404116,6.16958131 250.576555,6.16958131 L250.576555,9.3921016 C250.192302,9.36473225 249.861369,9.36473225 249.532198,9.36473225 C248.267512,9.36473225 246.865342,9.66756087 245.628417,10.4109477 L245.628417,18.2615369 C246.53573,18.3162756 247.331997,18.4535638 248.185109,18.6464736 C248.185109,19.0596625 248.101825,19.4728514 247.93702,19.9138511 L240.377107,19.9138511 L240.377107,18.6464736 Z M231.689112,18.4535638 C233.86023,18.4535638 235.043834,16.4988624 235.043834,13.2489728 C235.043834,9.94302014 233.916193,7.79452613 231.771074,7.79452613 C229.627719,7.79452613 228.416793,9.75099324 228.416793,13.0004414 C228.416793,16.3050698 229.544434,18.4535638 231.689112,18.4535638 L231.689112,18.4535638 Z M231.468784,20.1893103 C227.427518,20.1893103 224.788423,17.6558797 224.788423,13.3306394 C224.788423,8.48361574 227.867734,6.08747326 231.991844,6.08747326 C236.115512,6.08747326 238.671764,8.70433631 238.671764,12.9457027 C238.671764,17.7931678 235.619773,20.1893103 231.468784,20.1893103 L231.468784,20.1893103 Z M212.142006,18.8671941 L212.142006,15.3144759 L214.341325,15.3144759 C214.589415,16.1399708 214.781101,16.9120513 215.001429,18.0130055 C215.853219,18.2884648 216.595286,18.4266359 217.337352,18.4266359 C218.90521,18.4266359 219.757441,17.7649156 219.757441,16.6078984 C219.757441,15.5616829 219.234822,15.0116473 217.805771,14.6258277 L216.238354,14.2121974 C213.434453,13.4688105 212.306811,12.2296852 212.306811,10.1354885 C212.306811,7.68504873 214.368646,6.08747326 217.530801,6.08747326 C219.015374,6.08747326 220.582792,6.47329281 222.121566,7.18842745 L222.121566,10.1915515 L219.949567,10.1915515 C219.702799,9.55720058 219.565755,8.97979558 219.372307,8.0699854 C218.795046,7.87751706 218.217344,7.79452613 217.530801,7.79452613 C216.155069,7.79452613 215.220876,8.42887704 215.220876,9.36473225 C215.220876,10.3835784 215.771257,10.8519474 217.172987,11.2103976 L218.767725,11.624028 C221.490104,12.3387212 222.753909,13.7169004 222.753909,15.8640701 C222.753909,18.4535638 220.664754,20.161941 217.474837,20.161941 C215.688414,20.161941 214.039034,19.7483106 212.142006,18.8671941 L212.142006,18.8671941 Z M204.252481,2.17586336 C204.252481,1.04753981 205.104712,0.166423308 206.342518,0.166423308 C207.633643,0.166423308 208.513635,1.04753981 208.513635,2.17586336 C208.513635,3.33288057 207.606322,4.18706917 206.342518,4.18706917 C205.104712,4.18706917 204.252481,3.33288057 204.252481,2.17586336 L204.252481,2.17586336 Z M202.959594,18.6464736 C203.565497,18.4813746 204.22472,18.3705729 204.912586,18.2884648 L204.912586,8.26333662 L202.959594,7.85014771 L202.959594,6.66576115 C203.977071,6.36293253 205.407003,6.19783354 206.69945,6.19783354 C207.193867,6.19783354 207.579002,6.22520289 208.238665,6.27994159 L208.238665,18.2884648 C208.953852,18.3705729 209.668597,18.4813746 210.273179,18.6464736 C210.273179,19.0596625 210.164337,19.5275901 210.054172,19.9138511 L202.959594,19.9138511 L202.959594,18.6464736 Z M193.14572,19.9138511 L187.866648,7.90488641 C187.289828,7.85014771 186.740329,7.73978743 186.24459,7.60205779 L186.24459,6.36293253 L193.393369,6.36293253 C193.393369,6.7478692 193.310526,7.24449048 193.201684,7.60205779 C192.678624,7.73978743 192.128243,7.85014771 191.523661,7.93225576 L194.961227,15.9475025 L198.286866,7.98787735 C197.57168,7.93225576 196.857815,7.79452613 196.197711,7.60205779 L196.197711,6.36293253 L202.136887,6.36293253 C202.136887,6.7478692 202.053603,7.24449048 201.970759,7.60205779 C201.393058,7.76715678 200.87176,7.90488641 200.294059,7.98787735 L195.152913,19.9134096 C194.796421,20.0242113 194.465488,20.0515807 194.162757,20.0515807 C193.833145,20.0515807 193.475332,20.0242113 193.14572,19.9138511 L193.14572,19.9138511 Z M178.066435,17.9582668 C179.056592,17.9582668 179.88062,17.5450779 180.705971,16.8016911 L180.705971,8.23640871 C180.045426,7.960508 179.302919,7.79452613 178.616816,7.79452613 C176.169407,7.79452613 174.739474,9.47509253 174.739474,13.1108017 C174.739474,16.2503311 175.97728,17.9582668 178.066435,17.9582668 L178.066435,17.9582668 Z M171.111104,13.4688105 C171.111104,8.95154335 173.996967,6.08747326 178.121077,6.08747326 C178.946427,6.08747326 179.825979,6.19783354 180.705971,6.39030188 L180.705971,2.03813372 L178.75386,1.6805664 L178.75386,0.496621277 C179.743135,0.137729634 181.173068,0 182.492836,0 C182.988575,0 183.345066,0.0286936738 184.005611,0.0829909335 L184.005611,18.0403749 L186.011923,18.3432035 C185.984602,18.7020951 185.957281,19.0596625 185.874438,19.4185541 C185.021766,19.8030493 183.922768,20.1332473 183.125619,20.1332473 C181.475358,20.1332473 180.843456,19.3355632 180.733292,18.2615369 C179.936143,19.1973921 178.616816,20.1893103 176.719347,20.1893103 C173.47567,20.1893103 171.111104,17.7649156 171.111104,13.4688105 L171.111104,13.4688105 Z M163.055452,12.5051445 L160.360394,5.15029373 L157.693537,12.5051445 L163.055452,12.5051445 Z M153.184294,18.1233658 L159.536365,1.29474685 C160.030782,1.24000815 160.553842,1.18526945 161.048259,1.18526945 C161.569557,1.18526945 162.092617,1.24000815 162.615236,1.29474685 L168.965986,18.1781045 C169.681172,18.2615369 170.313074,18.3705729 170.836134,18.4809331 C170.836134,18.9493022 170.836134,19.3624911 170.670007,19.9134096 L162.780042,19.9134096 L162.780042,18.4809331 C163.522549,18.3158342 164.291936,18.1781045 165.089085,18.1233658 L163.797519,14.5423953 L156.951471,14.5423953 L155.659024,18.0964379 C156.319128,18.1781045 157.143157,18.3158342 158.050469,18.5087439 C158.050469,19.0870318 157.995828,19.5562837 157.885664,19.9134096 L151.314586,19.9134096 L151.314586,18.4809331 C151.891846,18.3162756 152.525071,18.2054739 153.184294,18.1233658 L153.184294,18.1233658 Z M137.433447,18.4535638 C139.604565,18.4535638 140.786407,16.4988624 140.786407,13.2489728 C140.786407,9.94302014 139.660528,7.79452613 137.514969,7.79452613 C135.371613,7.79452613 134.161128,9.75099324 134.161128,13.0004414 C134.161128,16.3050698 135.288769,18.4535638 137.433447,18.4535638 L137.433447,18.4535638 Z M137.213119,20.1893103 C133.172294,20.1893103 130.532758,17.6558797 130.532758,13.3306394 C130.532758,8.48361574 133.612069,6.08747326 137.735738,6.08747326 C141.859848,6.08747326 144.41654,8.70433631 144.41654,12.9457027 C144.41654,17.7931678 141.364108,20.1893103 137.213119,20.1893103 L137.213119,20.1893103 Z M124.703746,10.6047404 C124.703746,8.84206594 123.796874,7.68504873 122.421142,7.68504873 C120.992532,7.68504873 120.11254,8.84206594 120.11254,10.6047404 C120.11254,12.3113518 120.992532,13.4957384 122.421142,13.4957384 C123.796874,13.4957384 124.703746,12.3113518 124.703746,10.6047404 L124.703746,10.6047404 Z M122.504427,24.3476858 C124.703746,24.3476858 126.133678,23.4934972 126.133678,22.0340928 C126.133678,20.8783999 125.473133,20.1063194 123.68671,19.9138511 L120.634278,19.5836531 C120.580077,19.5836531 120.552757,19.5836531 120.496793,19.5562837 C119.479757,20.1893103 119.066861,21.0148053 119.066861,21.9793541 C119.066861,23.5495603 120.387951,24.3476858 122.504427,24.3476858 L122.504427,24.3476858 Z M120.771763,14.901287 C120.331987,15.1767462 120.029697,15.5069442 120.029697,15.9201331 C120.029697,16.4427994 120.496793,16.7743217 121.459629,16.8833577 L124.758388,17.2696187 C127.837699,17.6267445 129.515281,18.9775544 129.515281,21.3736969 C129.515281,24.0448572 126.435969,26 122.283657,26 C118.242832,26 116.016192,24.7339468 116.016192,22.4746511 C116.016192,20.9600666 117.171154,19.8304187 119.204346,19.1973921 C118.270153,18.7842032 117.638251,18.0403749 117.638251,17.049781 C117.638251,16.0583042 118.297474,15.2584128 119.479757,14.4876566 C117.803056,13.7711977 116.785579,12.3674149 116.785579,10.6047404 C116.785579,7.960508 119.066861,6.08747326 122.421142,6.08747326 C123.054807,6.08747326 123.632068,6.14221196 124.181127,6.27994159 C125.143962,4.48989779 126.517931,3.60878128 128.41496,3.60878128 C128.690371,3.60878128 129.019982,3.63570919 129.377796,3.69177222 L129.377796,6.03141023 C128.910699,5.94974362 128.608408,5.92237427 128.306118,5.92237427 C127.122513,5.92237427 126.242961,6.19783354 125.529097,6.7478692 C127.095192,7.51994974 128.030707,8.89680465 128.030707,10.6047404 C128.030707,13.2485314 125.803185,15.066386 122.421142,15.066386 C121.843882,15.066386 121.267502,15.0116473 120.771763,14.901287 L120.771763,14.901287 Z M104.964072,18.6464736 C105.568654,18.5087439 106.227877,18.3705729 106.888422,18.3162756 L106.888422,8.26333662 L104.964072,7.85014771 L104.964072,6.66576115 C105.871385,6.36293253 107.245354,6.19783354 108.702607,6.19783354 C109.032218,6.19783354 109.225667,6.22520289 109.857569,6.27994159 L110.214501,9.11752521 C111.369023,7.10676084 112.991522,6.16958131 115.163521,6.16958131 L115.163521,9.3921016 C114.779708,9.36473225 114.448775,9.36473225 114.119163,9.36473225 C112.854037,9.36473225 111.452307,9.66756087 110.214501,10.4109477 L110.214501,18.2615369 C111.122695,18.3162756 111.919403,18.4535638 112.772075,18.6464736 C112.772075,19.0596625 112.689231,19.4728514 112.524425,19.9138511 L104.964072,19.9138511 L104.964072,18.6464736 Z M96.3038389,17.9860776 C97.2939953,17.9860776 98.0360618,17.7375463 98.7226055,17.049781 L98.7226055,13.4414411 L97.5689653,13.5518014 C95.2035182,13.7990085 94.2146838,14.5423953 94.2146838,16.0583042 C94.2146838,17.2696187 95.0113917,17.9860776 96.3038389,17.9860776 L96.3038389,17.9860776 Z M90.914603,16.4154301 C90.914603,13.8819994 92.8949159,12.4221536 96.6334504,12.0645862 L98.7226055,11.8707936 L98.7226055,11.0452987 C98.7226055,9.17226391 97.7610918,8.18034568 95.780779,8.18034568 C94.5442953,8.18034568 93.0050801,8.56660668 92.0153644,9.11752521 L91.4923044,8.04261605 C92.7301101,6.88559883 94.9294295,6.08747326 97.0732261,6.08747326 C100.262702,6.08747326 102.022686,7.82277836 102.022686,10.9349384 L102.022686,18.0403749 L104.001237,18.3432035 C104.001237,18.6191042 103.973916,18.8945635 103.892394,19.4181127 C102.985522,19.8591124 101.912081,20.1332473 100.950568,20.1332473 C99.850247,20.1332473 99.1077398,19.5562837 98.8327698,18.5369962 C98.0087411,19.5832117 96.6061297,20.1332473 94.846586,20.1332473 C92.3991767,20.1332473 90.914603,18.7294645 90.914603,16.4154301 L90.914603,16.4154301 Z M75.9595835,18.5087439 C76.5914858,18.3705729 77.2520307,18.2337261 77.9394557,18.1511766 L77.9394557,3.03005195 C77.1145457,2.9479439 76.4826435,2.83758362 75.9595835,2.69985398 L75.9595835,1.29474685 L90.8057607,1.29474685 L90.8057607,6.96903121 L89.0462171,6.96903121 C88.7994491,6.22520289 88.4685156,4.62762742 88.3310306,3.33288057 L81.5136252,3.33288057 L81.5136252,9.72362389 L85.1142341,9.72362389 C85.1970776,8.97979558 85.3350033,8.26333662 85.5540098,7.68504873 L87.1765091,7.68504873 L87.1765091,13.7169004 L85.5540098,13.7169004 C85.3350033,13.1655404 85.1970776,12.4221536 85.1142341,11.6783252 L81.5136252,11.6783252 L81.5136252,18.1233658 C82.3385352,18.2054739 83.1625639,18.3432035 83.9319512,18.5087439 C83.9319512,18.9775544 83.8231089,19.4459235 83.6569811,19.9134096 L75.9595835,19.9134096 L75.9595835,18.5087439 Z M57.6771626,18.8671941 L57.6771626,15.3144759 L59.876482,15.3144759 C60.1241313,16.1399708 60.3162577,16.9120513 60.5370269,18.0130055 C61.3883764,18.2884648 62.1304429,18.4266359 62.87295,18.4266359 C64.4403672,18.4266359 65.292598,17.7649156 65.292598,16.6078984 C65.292598,15.5616829 64.7699787,15.0116473 63.3413685,14.6258277 L61.7739513,14.2121974 C58.9696097,13.4688105 57.8419683,12.2296852 57.8419683,10.1354885 C57.8419683,7.68504873 59.9038027,6.08747326 63.0659578,6.08747326 C64.5505315,6.08747326 66.1179486,6.47329281 67.6571638,7.18842745 L67.6571638,10.1915515 L65.4847244,10.1915515 C65.2383971,9.55720058 65.1009121,8.97979558 64.9074637,8.0699854 C64.3302029,7.87751706 63.7525015,7.79452613 63.0659578,7.79452613 C61.6906671,7.79452613 60.7564741,8.42887704 60.7564741,9.36473225 C60.7564741,10.3835784 61.3068548,10.8519474 62.7081443,11.2103976 L64.3028822,11.624028 C67.0252615,12.3387212 68.289066,13.7169004 68.289066,15.8640701 C68.289066,18.4535638 66.1999109,20.161941 63.010435,20.161941 C61.2235706,20.161941 59.5741912,19.7483106 57.6771626,18.8671941 L57.6771626,18.8671941 Z M50.6958327,18.2884648 L50.6958327,2.03813372 L48.7701613,1.6805664 L48.7701613,0.496621277 C49.7603177,0.137729634 51.2175707,0 52.5100178,0 C53.0044351,0 53.3895693,0.0286936738 54.0214716,0.0829909335 L54.0214716,18.2884648 C54.736658,18.3705729 55.4514037,18.4813746 56.0837466,18.6464736 C56.0837466,19.0870318 55.9744637,19.5275901 55.8642994,19.9138511 L48.7701613,19.9138511 L48.7701613,18.6464736 C49.3474221,18.4813746 50.007967,18.3705729 50.6958327,18.2884648 L50.6958327,18.2884648 Z M42.4753751,18.2884648 L42.4753751,2.03813372 L40.5497038,1.6805664 L40.5497038,0.496621277 C41.5398602,0.137729634 42.9971131,0 44.2891196,0 C44.7835369,0 45.1691118,0.0286936738 45.801014,0.0829909335 L45.801014,18.2884648 C46.5162004,18.3705729 47.2309462,18.4813746 47.8628484,18.6464736 C47.8628484,19.0870318 47.7540061,19.5275901 47.6438419,19.9138511 L40.5497038,19.9138511 L40.5497038,18.6464736 C41.1269645,18.4813746 41.7875095,18.3705729 42.4753751,18.2884648 L42.4753751,18.2884648 Z M30.2414131,11.6783252 L36.043104,11.6783252 C35.9871405,8.70433631 34.9696634,7.71241808 33.320284,7.71241808 C31.588061,7.71241808 30.4617416,8.924174 30.2414131,11.6783252 L30.2414131,11.6783252 Z M26.7778485,13.1108017 C26.7778485,8.924174 29.5535474,6.08747326 33.3762474,6.08747326 C37.1976255,6.08747326 39.0946541,8.37281402 39.0946541,12.2296852 C39.0946541,12.6702435 39.0946541,13.0551801 39.0664521,13.3580088 L30.2414131,13.3580088 C30.4890623,16.8290604 32.4134117,18.0677442 34.6960153,18.0677442 C35.932499,18.0677442 37.252267,17.7649156 38.3799084,17.21488 L38.9016463,18.3162756 C37.664722,19.3624911 35.6028876,20.1893103 33.4035681,20.1893103 C29.1692944,20.1893103 26.7778485,17.5724473 26.7778485,13.1108017 L26.7778485,13.1108017 Z M7.17565965,19.9138511 L1.86838596,3.03005195 C1.15452151,2.9479439 0.521297308,2.81021427 0,2.69985398 L0,1.29474685 L7.94504688,1.29474685 C7.94504688,1.76267445 7.86220335,2.31359299 7.72471835,2.69985398 C7.31314465,2.81021427 6.56975618,2.91969167 5.74572747,3.0026826 L9.29213553,14.5980169 L13.3616035,2.14849401 C13.8013793,2.0668274 14.2684758,2.03813372 14.7633336,2.03813372 C15.1757887,2.03813372 15.5882437,2.0668274 16.0553402,2.14849401 L19.9873232,14.6527556 L23.6438955,3.11304289 C22.6537391,3.03005195 21.8015083,2.86495297 21.1696061,2.69985398 L21.1696061,1.29474685 L27.90549,1.29474685 C27.90549,1.7353051 27.8222058,2.28622364 27.7133635,2.69985398 C27.246267,2.83758362 26.585722,3.0026826 25.8436555,3.08479066 L20.5919046,19.9138511 C20.0974874,19.996842 19.6577117,20.0242113 19.2174953,20.0242113 C18.7777195,20.0242113 18.3652645,19.996842 17.9250481,19.9138511 L13.8287,7.1610581 L9.75923202,19.9138511 C9.26481479,19.996842 8.7977183,20.0242113 8.35794255,20.0242113 C7.94504688,20.0242113 7.55991261,19.996842 7.17565965,19.9138511 L7.17565965,19.9138511 Z" id="Fill-1"></path>
        </g>
    </g>
</svg>