<?xml version="1.0" encoding="utf-8"?>
<!-- Generator: Adobe Illustrator 27.0.0, SVG Export Plug-In . SVG Version: 6.00 Build 0)  -->
<svg version="1.1" id="Layer_1" xmlns="http://www.w3.org/2000/svg" xmlns:xlink="http://www.w3.org/1999/xlink" x="0px" y="0px"
	 width="269px" height="27px" viewBox="0 0 269 27" style="enable-background:new 0 0 269 27;" xml:space="preserve">
<style type="text/css">
	.st0{fill:#F4F0EA;}
	.st1{fill:#141414;}
</style>
<rect x="0.3" y="0.3" class="st0" width="268.6" height="26.5"/>
<g id="Page-1">
	<g id="WFA-Final-Prospect-Homepage_DropMenu_Final" transform="translate(-81.000000, -75.000000)">
		<g id="WFA-Masthead">
			<g id="Middle-Bar">
				<g transform="translate(0.000000, 60.000000)">
					<g id="Secondary-Title" transform="translate(81.000000, 15.000000)">
						<g id="WFA_logo_online_rgb_blk_F1" transform="translate(0.000000, -0.000000)">
							<path id="Shape" class="st1" d="M7.6,20.6L2.2,3.4C1.4,3.3,0.8,3.1,0.3,3V1.6h8.1c0,0.5-0.1,1-0.2,1.4C7.7,3.1,7,3.2,6.1,3.3
								l3.6,11.8l4.2-12.7c0.4-0.1,0.9-0.1,1.4-0.1c0.4,0,0.8,0,1.3,0.1l4,12.7l3.7-11.8c-1-0.1-1.9-0.3-2.5-0.4V1.6h6.9
								c0,0.4-0.1,1-0.2,1.4c-0.5,0.1-1.2,0.3-1.9,0.4l-5.4,17.2c-0.5,0.1-1,0.1-1.4,0.1c-0.4,0-0.9,0-1.3-0.1l-4.2-13l-4.2,13
								c-0.5,0.1-1,0.1-1.4,0.1C8.4,20.7,8,20.7,7.6,20.6z M27.6,13.6c0-4.3,2.8-7.2,6.7-7.2c3.9,0,5.8,2.3,5.8,6.3
								c0,0.4,0,0.8,0,1.2h-9c0.3,3.5,2.2,4.8,4.5,4.8c1.3,0,2.6-0.3,3.8-0.9l0.5,1.1c-1.3,1.1-3.4,1.9-5.6,1.9
								C30.1,20.9,27.6,18.2,27.6,13.6z M31.2,12.2h5.9c-0.1-3-1.1-4-2.8-4C32.5,8.1,31.4,9.4,31.2,12.2z M43.6,18.9V2.4l-2-0.4V0.8
								c1-0.4,2.5-0.5,3.8-0.5c0.5,0,0.9,0,1.5,0.1v18.6c0.7,0.1,1.5,0.2,2.1,0.4c0,0.4-0.1,0.9-0.2,1.3h-7.2v-1.3
								C42.3,19.1,42.9,19,43.6,18.9z M52,18.9V2.4l-2-0.4V0.8c1-0.4,2.5-0.5,3.8-0.5c0.5,0,0.9,0,1.5,0.1v18.6
								c0.7,0.1,1.5,0.2,2.1,0.4c0,0.4-0.1,0.9-0.2,1.3h-7.2v-1.3C50.7,19.1,51.3,19,52,18.9z M59.2,19.5v-3.6h2.2
								c0.3,0.8,0.4,1.6,0.7,2.8c0.9,0.3,1.6,0.4,2.4,0.4c1.6,0,2.5-0.7,2.5-1.9c0-1.1-0.5-1.6-2-2l-1.6-0.4c-2.9-0.8-4-2-4-4.2
								c0-2.5,2.1-4.1,5.3-4.1c1.5,0,3.1,0.4,4.7,1.1v3.1h-2.2c-0.3-0.6-0.4-1.2-0.6-2.2c-0.6-0.2-1.2-0.3-1.9-0.3
								c-1.4,0-2.4,0.6-2.4,1.6c0,1,0.6,1.5,2,1.9l1.6,0.4c2.8,0.7,4.1,2.1,4.1,4.3c0,2.6-2.1,4.4-5.4,4.4
								C62.8,20.8,61.1,20.4,59.2,19.5z M77.8,19.1c0.6-0.1,1.3-0.3,2-0.4V3.4c-0.8-0.1-1.5-0.2-2-0.3V1.6H93v5.8h-1.8
								C91,6.6,90.6,5,90.5,3.7h-7v6.5h3.7c0.1-0.8,0.2-1.5,0.4-2.1h1.7v6.1h-1.7c-0.2-0.6-0.4-1.3-0.4-2.1h-3.7v6.6
								c0.8,0.1,1.7,0.2,2.5,0.4c0,0.5-0.1,1-0.3,1.4h-7.9V19.1z M93.1,17c0-2.6,2-4.1,5.8-4.4l2.1-0.2v-0.8c0-1.9-1-2.9-3-2.9
								c-1.3,0-2.8,0.4-3.8,1l-0.5-1.1c1.3-1.2,3.5-2,5.7-2c3.3,0,5.1,1.8,5.1,4.9v7.2l2,0.3c0,0.3,0,0.6-0.1,1.1
								c-0.9,0.4-2,0.7-3,0.7c-1.1,0-1.9-0.6-2.2-1.6c-0.8,1.1-2.3,1.6-4.1,1.6C94.6,20.8,93.1,19.4,93.1,17z M98.6,18.6
								c1,0,1.8-0.3,2.5-1V14l-1.2,0.1c-2.4,0.3-3.4,1-3.4,2.6C96.5,17.9,97.3,18.6,98.6,18.6z M107.5,19.3c0.6-0.1,1.3-0.3,2-0.3
								V8.7l-2-0.4V7.1c0.9-0.3,2.3-0.5,3.8-0.5c0.3,0,0.5,0,1.2,0.1l0.4,2.9c1.2-2,2.8-3,5.1-3v3.3c-0.4,0-0.7,0-1.1,0
								c-1.3,0-2.7,0.3-4,1.1v8c0.9,0.1,1.7,0.2,2.6,0.4c0,0.4-0.1,0.8-0.3,1.3h-7.7V19.3L107.5,19.3z M123.6,15.5
								c-0.4,0.3-0.8,0.6-0.8,1c0,0.5,0.5,0.9,1.5,1l3.4,0.4c3.1,0.4,4.9,1.7,4.9,4.2c0,2.7-3.1,4.7-7.4,4.7c-4.1,0-6.4-1.3-6.4-3.6
								c0-1.5,1.2-2.7,3.3-3.3c-1-0.4-1.6-1.2-1.6-2.2c0-1,0.7-1.8,1.9-2.6c-1.7-0.7-2.8-2.2-2.8-4c0-2.7,2.3-4.6,5.8-4.6
								c0.6,0,1.2,0.1,1.8,0.2c1-1.8,2.4-2.7,4.3-2.7c0.3,0,0.6,0,1,0.1v2.4c-0.5-0.1-0.8-0.1-1.1-0.1c-1.2,0-2.1,0.3-2.8,0.8
								c1.6,0.8,2.6,2.2,2.6,3.9c0,2.7-2.3,4.5-5.7,4.5C124.7,15.6,124.1,15.6,123.6,15.5z M125.4,25.1c2.2,0,3.7-0.9,3.7-2.4
								c0-1.2-0.7-2-2.5-2.2l-3.1-0.3c-0.1,0-0.1,0-0.1,0c-1,0.6-1.5,1.5-1.5,2.5C121.9,24.3,123.2,25.1,125.4,25.1z M127.6,11.1
								c0-1.8-0.9-3-2.3-3c-1.5,0-2.4,1.2-2.4,3c0,1.7,0.9,2.9,2.4,2.9C126.7,14,127.6,12.8,127.6,11.1z M140.4,20.9
								c-4.1,0-6.8-2.6-6.8-7c0-4.9,3.1-7.4,7.4-7.4s6.8,2.7,6.8,7C147.7,18.4,144.6,20.9,140.4,20.9z M140.6,19.1
								c2.2,0,3.4-2,3.4-5.3c0-3.4-1.2-5.6-3.3-5.6c-2.2,0-3.4,2-3.4,5.3C137.3,16.9,138.4,19.1,140.6,19.1z M156.7,18.7l6.5-17.2
								c0.5-0.1,1-0.1,1.5-0.1c0.5,0,1.1,0.1,1.6,0.1l6.5,17.2c0.7,0.1,1.4,0.2,1.9,0.3c0,0.5,0,0.9-0.2,1.5h-8.1v-1.5
								c0.8-0.2,1.5-0.3,2.4-0.4l-1.3-3.7h-7l-1.3,3.6c0.7,0.1,1.5,0.2,2.4,0.4c0,0.6-0.1,1.1-0.2,1.4h-6.7v-1.5
								C155.4,18.9,156,18.8,156.7,18.7z M166.8,13L164,5.5l-2.7,7.5H166.8z M175,14c0-4.6,2.9-7.5,7.2-7.5c0.8,0,1.7,0.1,2.6,0.3
								V2.4l-2-0.4V0.8c1-0.4,2.5-0.5,3.8-0.5c0.5,0,0.9,0,1.5,0.1v18.3l2,0.3c0,0.4-0.1,0.7-0.1,1.1c-0.9,0.4-2,0.7-2.8,0.7
								c-1.7,0-2.3-0.8-2.4-1.9c-0.8,1-2.2,2-4.1,2C177.4,20.9,175,18.4,175,14z M182.1,18.6c1,0,1.9-0.4,2.7-1.2V8.7
								c-0.7-0.3-1.4-0.5-2.1-0.5c-2.5,0-4,1.7-4,5.4C178.7,16.8,180,18.6,182.1,18.6z M197.5,20.6l-5.4-12.2
								c-0.6-0.1-1.2-0.2-1.7-0.3V6.8h7.3c0,0.4-0.1,0.9-0.2,1.3c-0.5,0.1-1.1,0.3-1.7,0.3l3.5,8.2l3.4-8.1
								c-0.7-0.1-1.5-0.2-2.1-0.4V6.8h6.1c0,0.4-0.1,0.9-0.2,1.3c-0.6,0.2-1.1,0.3-1.7,0.4l-5.3,12.2c-0.4,0.1-0.7,0.1-1,0.1
								C198.2,20.7,197.8,20.7,197.5,20.6z M207.5,19.3c0.6-0.2,1.3-0.3,2-0.4V8.7l-2-0.4V7.1c1-0.3,2.5-0.5,3.8-0.5
								c0.5,0,0.9,0,1.6,0.1v12.2c0.7,0.1,1.5,0.2,2.1,0.4c0,0.4-0.1,0.9-0.2,1.3h-7.2V19.3L207.5,19.3z M208.9,2.5
								c0-1.2,0.9-2,2.1-2c1.3,0,2.2,0.9,2.2,2c0,1.2-0.9,2-2.2,2C209.7,4.5,208.9,3.7,208.9,2.5z M216.9,19.5v-3.6h2.2
								c0.3,0.8,0.4,1.6,0.7,2.8c0.9,0.3,1.6,0.4,2.4,0.4c1.6,0,2.5-0.7,2.5-1.9c0-1.1-0.5-1.6-2-2l-1.6-0.4c-2.9-0.8-4-2-4-4.2
								c0-2.5,2.1-4.1,5.3-4.1c1.5,0,3.1,0.4,4.7,1.1v3.1h-2.2c-0.3-0.6-0.4-1.2-0.6-2.2c-0.6-0.2-1.2-0.3-1.9-0.3
								c-1.4,0-2.4,0.6-2.4,1.6c0,1,0.6,1.5,2,1.9l1.6,0.4c2.8,0.7,4.1,2.1,4.1,4.3c0,2.6-2.1,4.4-5.4,4.4
								C220.5,20.8,218.8,20.4,216.9,19.5z M236.6,20.9c-4.1,0-6.8-2.6-6.8-7c0-4.9,3.1-7.4,7.4-7.4c4.2,0,6.8,2.7,6.8,7
								C244,18.4,240.9,20.9,236.6,20.9z M236.9,19.1c2.2,0,3.4-2,3.4-5.3c0-3.4-1.2-5.6-3.3-5.6c-2.2,0-3.4,2-3.4,5.3
								C233.5,16.9,234.7,19.1,236.9,19.1z M245.7,19.3c0.6-0.1,1.3-0.3,2-0.3V8.7l-2-0.4V7.1c0.9-0.3,2.3-0.5,3.8-0.5
								c0.3,0,0.5,0,1.2,0.1l0.4,2.9c1.2-2,2.8-3,5.1-3v3.3c-0.4,0-0.7,0-1.1,0c-1.3,0-2.7,0.3-4,1.1v8c0.9,0.1,1.7,0.2,2.6,0.4
								c0,0.4-0.1,0.8-0.3,1.3h-7.7V19.3L245.7,19.3z M258,19.5v-3.6h2.2c0.3,0.8,0.4,1.6,0.7,2.8c0.9,0.3,1.6,0.4,2.4,0.4
								c1.6,0,2.5-0.7,2.5-1.9c0-1.1-0.5-1.6-2-2l-1.6-0.4c-2.9-0.8-4-2-4-4.2c0-2.5,2.1-4.1,5.3-4.1c1.5,0,3.1,0.4,4.7,1.1v3.1H266
								c-0.3-0.6-0.4-1.2-0.6-2.2c-0.6-0.2-1.2-0.3-1.9-0.3c-1.4,0-2.4,0.6-2.4,1.6c0,1,0.6,1.5,2,1.9l1.6,0.4
								c2.8,0.7,4.1,2.1,4.1,4.3c0,2.6-2.1,4.4-5.4,4.4C261.6,20.8,259.9,20.4,258,19.5z"/>
						</g>
					</g>
				</g>
			</g>
		</g>
	</g>
</g>
</svg>
