<?xml version="1.0" encoding="UTF-8"?>
<svg width="7px" height="12px" viewBox="0 0 7 12" version="1.1" xmlns="http://www.w3.org/2000/svg" xmlns:xlink="http://www.w3.org/1999/xlink">
    <!-- Generator: sketchtool 55.2 (78181) - https://sketchapp.com -->
    <title>80662B0E-6FDD-40C9-8B51-E33C80607217</title>
    <desc>Created with sketchtool.</desc>
    <g id="🔹-Actions" stroke="none" stroke-width="1" fill="none" fill-rule="evenodd">
        <g id="Links" transform="translate(-737.000000, -445.000000)" fill="#5A469B" fill-rule="nonzero">
            <g id="call-to-action/link/single/hover" transform="translate(667.000000, 441.000000)">
                <g id="Icon" transform="translate(67.000000, 4.000000)">
                    <g id="link-single-indicator" transform="translate(3.000000, 0.000000)">
                        <path d="M6.70762187,5.26099229 L1.76350739,0.294298438 C1.37289338,-0.0980994794 0.740518257,-0.0980994794 0.350903255,0.294298438 C-0.0397107598,0.685692781 -0.0397107598,1.32095591 0.350903255,1.71335382 L4.58871566,5.97152355 L0.292960511,10.2868971 C-0.0976535038,10.679295 -0.0976535038,11.3145581 0.292960511,11.7059525 C0.487768012,11.9026532 0.743515296,12 0.999262579,12 C1.25500986,12 1.51075715,11.9026532 1.70556465,11.7059525 L6.70662285,6.6830584 C6.80452611,6.58370445 6.87745405,6.47030045 6.92640568,6.34886784 C7.07326056,5.98657718 7.00033263,5.55503983 6.70762187,5.26099229" id="fill"></path>
                    </g>
                </g>
            </g>
        </g>
    </g>
</svg>