<?xml version="1.0" encoding="UTF-8"?>
<svg width="9px" height="8px" viewBox="0 0 9 8" version="1.1" xmlns="http://www.w3.org/2000/svg" xmlns:xlink="http://www.w3.org/1999/xlink">
    <!-- Generator: Sketch 55.2 (78181) - https://sketchapp.com -->
    <title>icon/button/link-list</title>
    <desc>Created with Sketch.</desc>
    <g id="Icons" stroke="none" stroke-width="1" fill="none" fill-rule="evenodd">
        <g id="Buttons-(icons)" transform="translate(-143.000000, -239.000000)" fill="#3B3331" fill-rule="nonzero">
            <g id="icon/button/link-list" transform="translate(140.000000, 236.000000)">
                <path d="M7.16000002,3.15013194 C6.98966655,3.32170164 6.98966655,3.59856224 7.16000002,3.77013194 L10.16,6.58013194 L3.44000002,6.58013194 C3.19699473,6.58013194 3,6.77712665 3,7.02013194 C3,7.13592898 3.04664227,7.24684437 3.12945883,7.32777873 C3.21227539,7.4087131 3.32423429,7.4528249 3.44000002,7.45013194 L10.16,7.45013194 L7.16000002,10.2601319 C6.98966655,10.4317016 6.98966655,10.7085622 7.16000002,10.8801319 C7.33370134,11.0452118 7.60629869,11.0452118 7.78000002,10.8801319 L11.59,7.32013194 C11.6846284,7.24071638 11.739495,7.12366783 11.74,7.00013194 C11.7378948,6.86406253 11.6756487,6.73590881 11.57,6.65013194 L7.77000002,3.11013194 C7.69146687,3.03690552 7.58734131,2.99740962 7.48000002,3.00013194 C7.357058,3.00321455 7.24101681,3.05760886 7.16000002,3.15013194 L7.16000002,3.15013194 Z" id="fill"></path>
            </g>
        </g>
    </g>
</svg>