<svg width="24" height="24" viewBox="0 0 24 24" fill="none" xmlns="http://www.w3.org/2000/svg">
<g clip-path="url(#clip0_34_2098)">
<path d="M21 23.52H3C1.344 23.52 0 22.2297 0 20.64V3.35998C0 1.77022 1.344 0.47998 3 0.47998H21C22.656 0.47998 24 1.77022 24 3.35998V20.64C24 22.2297 22.656 23.52 21 23.52Z" fill="#3B3331"/>
<path d="M15.8428 24V14.8821H18.5061L18.9035 11.3144H15.8428V9.0437C15.8428 8.01227 16.0925 7.30965 17.3717 7.30965H19V4.14145C18.21 4.04506 17.4163 3.99793 16.6226 4C14.2628 4 12.6513 5.66022 12.6513 8.70418V11.3219H10V14.8885H12.6513V24H15.8428Z" fill="white"/>
</g>
<defs>
<clipPath id="clip0_34_2098">
<rect width="24" height="24" fill="white"/>
</clipPath>
</defs>
</svg>
