<svg width="24" height="24" viewBox="0 0 24 24" fill="none" xmlns="http://www.w3.org/2000/svg">
<path d="M22 0.47998H2C0.89543 0.47998 0 1.33959 0 2.39998V21.6C0 22.6604 0.89543 23.52 2 23.52H22C23.1046 23.52 24 22.6604 24 21.6V2.39998C24 1.33959 23.1046 0.47998 22 0.47998Z" fill="#3B3331"/>
<path d="M8 20.64H4V9.12001H8V20.64ZM6.0384 8.16001H6.01387C4.83627 8.16001 4 7.19778 4 6.24001C4 5.25943 4.81173 4.32001 6.01387 4.32001C7.216 4.32001 7.97547 5.25943 8 6.24001C8 7.19778 7.26507 8.16001 6.0384 8.16001ZM10 20.64V12.9677V9.37345H13.2934V10.9402C13.7901 10.2029 14.6173 9.12001 16.6538 9.12001C19.1373 9.12001 21 10.6637 21 13.9814V20.64H17.225V14.3962C17.225 12.9446 16.6786 11.9539 15.3127 11.9539C14.2696 11.9539 13.6487 12.6221 13.3755 13.2672C13.2761 13.4976 13.2513 13.8202 13.2513 14.1427V20.64H10Z" fill="white"/>
</svg>
