<svg width="81" height="81" viewBox="0 0 81 81" fill="none" xmlns="http://www.w3.org/2000/svg">
<circle cx="40.5" cy="40.5" r="40.5" fill="none"/>
<path fill-rule="evenodd" clip-rule="evenodd" d="M40.5002 77.76C19.9554 77.76 3.24023 61.0448 3.24023 40.5C3.24023 19.9551 19.9554 3.23999 40.5002 3.23999C61.0451 3.23999 77.7602 19.9551 77.7602 40.5C77.7602 61.0448 61.0451 77.76 40.5002 77.76ZM40.5 0C18.1699 0 0 18.1667 0 40.5C0 62.8333 18.1699 81 40.5 81C62.8333 81 81 62.8333 81 40.5C81 18.1667 62.8333 0 40.5 0Z" fill="#ffffff"/>
<path fill-rule="evenodd" clip-rule="evenodd" d="M29.2397 60.7165V19.5005L63.1755 40.1069L29.2397 60.7165ZM67.135 38.7234L28.4624 15.2367C27.957 14.9289 27.3316 14.9224 26.8262 15.2108C26.3143 15.4959 26 16.0337 26 16.6202V63.5969C26 64.1801 26.3175 64.7212 26.8262 65.0063C27.0724 65.1456 27.3478 65.2169 27.62 65.2169C27.9116 65.2169 28.2032 65.1359 28.4624 64.9804L67.135 41.4904C67.621 41.1988 67.9159 40.6739 67.9159 40.1069C67.9159 39.5399 67.621 39.015 67.135 38.7234Z" fill="#ffffff"/>
</svg>
